<svg id="flag-usa" xmlns="http://www.w3.org/2000/svg" width="24.421" height="16" viewBox="0 0 24.421 16">
  <path id="Path_13" data-name="Path 13" d="M24,104.276H.421A.421.421,0,0,1,0,103.855V88.7a.421.421,0,0,1,.421-.421H24a.421.421,0,0,1,.421.421v15.158A.421.421,0,0,1,24,104.276Z" transform="translate(0 -88.276)" fill="#f5f5f5"/>
  <g id="Group_7" data-name="Group 7" transform="translate(0 0)">
    <path id="Path_14" data-name="Path 14" d="M24.421,89.507H0V88.7a.421.421,0,0,1,.421-.421H24a.421.421,0,0,1,.421.421v.81Z" transform="translate(0 -88.276)" fill="#ff4b55"/>
    <rect id="Rectangle_6" data-name="Rectangle 6" width="24.421" height="1.231" transform="translate(0 4.923)" fill="#ff4b55"/>
    <rect id="Rectangle_7" data-name="Rectangle 7" width="24.421" height="1.231" transform="translate(0 2.461)" fill="#ff4b55"/>
    <path id="Path_15" data-name="Path 15" d="M24.421,244.329h-24A.421.421,0,0,1,0,243.908v-.81H24.421Z" transform="translate(0 -235.713)" fill="#ff4b55"/>
    <rect id="Rectangle_8" data-name="Rectangle 8" width="24.421" height="1.231" transform="translate(0 12.308)" fill="#ff4b55"/>
    <path id="Path_16" data-name="Path 16" d="M24,399.152H.421A.421.421,0,0,1,0,398.731v-.81H24.421v.81A.421.421,0,0,1,24,399.152Z" transform="translate(0 -383.152)" fill="#ff4b55"/>
    <rect id="Rectangle_9" data-name="Rectangle 9" width="24.421" height="1.231" transform="translate(0 9.846)" fill="#ff4b55"/>
  </g>
  <path id="Path_17" data-name="Path 17" d="M10.947,88.277H.421A.421.421,0,0,0,0,88.7v7.773a.421.421,0,0,0,.421.421H10.947a.421.421,0,0,0,.421-.421V88.7A.421.421,0,0,0,10.947,88.277Z" transform="translate(0 -88.277)" fill="#41479b"/>
  <g id="Group_8" data-name="Group 8" transform="translate(0.68 0.939)">
    <path id="Path_18" data-name="Path 18" d="M14.755,108l.093.279.295,0a.04.04,0,0,1,.023.072l-.237.175.089.281a.04.04,0,0,1-.061.044l-.24-.171-.24.171a.04.04,0,0,1-.061-.044l.089-.281-.237-.175a.04.04,0,0,1,.023-.072l.295,0,.093-.28A.04.04,0,0,1,14.755,108Z" transform="translate(-14.253 -107.969)" fill="#f5f5f5"/>
    <path id="Path_19" data-name="Path 19" d="M14.755,138.651l.093.28.295,0a.04.04,0,0,1,.023.072l-.237.175.089.281a.04.04,0,0,1-.061.044l-.24-.171-.24.171a.04.04,0,0,1-.061-.044l.089-.281L14.269,139a.04.04,0,0,1,.023-.072l.295,0,.093-.28A.04.04,0,0,1,14.755,138.651Z" transform="translate(-14.253 -137.161)" fill="#f5f5f5"/>
    <path id="Path_20" data-name="Path 20" d="M14.755,169.3l.093.28.295,0a.04.04,0,0,1,.023.072l-.237.175.089.281a.04.04,0,0,1-.061.044l-.24-.171-.24.171a.04.04,0,0,1-.061-.044l.089-.281-.237-.175a.04.04,0,0,1,.023-.072l.295,0,.093-.28A.04.04,0,0,1,14.755,169.3Z" transform="translate(-14.253 -166.353)" fill="#f5f5f5"/>
    <path id="Path_21" data-name="Path 21" d="M14.755,199.959l.093.28.295,0a.04.04,0,0,1,.023.072l-.237.175.089.281a.04.04,0,0,1-.061.044l-.24-.171-.24.171a.04.04,0,0,1-.061-.044l.089-.281-.237-.175a.04.04,0,0,1,.023-.072l.295,0,.093-.28A.04.04,0,0,1,14.755,199.959Z" transform="translate(-14.253 -195.546)" fill="#f5f5f5"/>
    <path id="Path_22" data-name="Path 22" d="M14.755,230.612l.093.28.295,0a.04.04,0,0,1,.023.072l-.237.175.089.281a.04.04,0,0,1-.061.044l-.24-.171-.24.171a.04.04,0,0,1-.061-.044l.089-.281-.237-.175a.04.04,0,0,1,.023-.072l.295,0,.093-.28A.04.04,0,0,1,14.755,230.612Z" transform="translate(-14.253 -224.737)" fill="#f5f5f5"/>
    <path id="Path_23" data-name="Path 23" d="M38.548,123.026l.093.279.295,0a.04.04,0,0,1,.023.072l-.237.175.089.281a.04.04,0,0,1-.061.044l-.24-.171-.24.171a.04.04,0,0,1-.061-.044l.089-.281-.237-.175a.04.04,0,0,1,.023-.072l.295,0,.093-.279A.04.04,0,0,1,38.548,123.026Z" transform="translate(-36.911 -122.282)" fill="#f5f5f5"/>
    <path id="Path_24" data-name="Path 24" d="M38.548,153.68l.093.28.295,0a.04.04,0,0,1,.023.072l-.237.175.089.281a.04.04,0,0,1-.061.044l-.24-.171-.24.171a.04.04,0,0,1-.061-.044l.089-.281-.237-.175a.04.04,0,0,1,.023-.072l.295,0,.093-.28A.04.04,0,0,1,38.548,153.68Z" transform="translate(-36.911 -151.474)" fill="#f5f5f5"/>
    <path id="Path_25" data-name="Path 25" d="M38.548,184.334l.093.279.295,0a.04.04,0,0,1,.023.072l-.237.175.089.281a.04.04,0,0,1-.061.044l-.24-.171-.24.171a.04.04,0,0,1-.061-.044l.089-.281-.237-.175a.04.04,0,0,1,.023-.072l.295,0,.093-.279A.04.04,0,0,1,38.548,184.334Z" transform="translate(-36.911 -180.666)" fill="#f5f5f5"/>
    <path id="Path_26" data-name="Path 26" d="M38.548,214.989l.093.279.295,0a.04.04,0,0,1,.023.072l-.237.175.089.281a.04.04,0,0,1-.061.044l-.24-.171-.24.171a.04.04,0,0,1-.061-.044l.089-.281-.237-.175a.04.04,0,0,1,.023-.072l.295,0,.093-.279A.04.04,0,0,1,38.548,214.989Z" transform="translate(-36.911 -209.858)" fill="#f5f5f5"/>
    <path id="Path_27" data-name="Path 27" d="M62.341,108l.093.28.295,0a.04.04,0,0,1,.023.072l-.237.175.089.281a.04.04,0,0,1-.061.044l-.24-.171-.24.171a.04.04,0,0,1-.061-.044l.089-.281-.237-.175a.04.04,0,0,1,.023-.072l.295,0,.093-.28A.04.04,0,0,1,62.341,108Z" transform="translate(-59.569 -107.969)" fill="#f5f5f5"/>
    <path id="Path_28" data-name="Path 28" d="M62.341,138.651l.093.28.295,0a.04.04,0,0,1,.023.072l-.237.175.089.281a.04.04,0,0,1-.061.044l-.24-.171-.24.171A.04.04,0,0,1,62,139.46l.089-.281L61.855,139a.04.04,0,0,1,.023-.072l.295,0,.093-.28A.04.04,0,0,1,62.341,138.651Z" transform="translate(-59.569 -137.161)" fill="#f5f5f5"/>
    <path id="Path_29" data-name="Path 29" d="M62.341,169.3l.093.28.295,0a.04.04,0,0,1,.023.072l-.237.175.089.281a.04.04,0,0,1-.061.044l-.24-.171-.24.171a.04.04,0,0,1-.061-.044l.089-.281-.237-.175a.04.04,0,0,1,.023-.072l.295,0,.093-.28A.04.04,0,0,1,62.341,169.3Z" transform="translate(-59.569 -166.353)" fill="#f5f5f5"/>
    <path id="Path_30" data-name="Path 30" d="M62.341,199.959l.093.279.295,0a.04.04,0,0,1,.023.072l-.237.175.089.281a.04.04,0,0,1-.061.044l-.24-.171-.24.171a.04.04,0,0,1-.061-.044l.089-.281-.237-.175a.04.04,0,0,1,.023-.072l.295,0,.093-.279A.04.04,0,0,1,62.341,199.959Z" transform="translate(-59.569 -195.545)" fill="#f5f5f5"/>
    <path id="Path_31" data-name="Path 31" d="M62.341,230.612l.093.279.295,0a.04.04,0,0,1,.023.072l-.237.175.089.281a.04.04,0,0,1-.061.044l-.24-.171-.24.171a.04.04,0,0,1-.061-.044l.089-.281-.237-.175a.04.04,0,0,1,.023-.072l.295,0,.093-.279A.04.04,0,0,1,62.341,230.612Z" transform="translate(-59.569 -224.737)" fill="#f5f5f5"/>
    <path id="Path_32" data-name="Path 32" d="M86.135,123.026l.093.279.295,0a.04.04,0,0,1,.023.072l-.237.175.089.281a.04.04,0,0,1-.061.044l-.24-.171-.24.171a.04.04,0,0,1-.061-.044l.089-.281-.237-.175a.04.04,0,0,1,.023-.072l.295,0,.093-.279A.04.04,0,0,1,86.135,123.026Z" transform="translate(-82.228 -122.282)" fill="#f5f5f5"/>
    <path id="Path_33" data-name="Path 33" d="M86.135,153.68l.093.28.295,0a.04.04,0,0,1,.023.072l-.237.175.089.281a.04.04,0,0,1-.061.044l-.24-.171-.24.171a.04.04,0,0,1-.061-.044l.089-.281-.237-.175a.04.04,0,0,1,.023-.072l.295,0,.093-.28A.04.04,0,0,1,86.135,153.68Z" transform="translate(-82.228 -151.474)" fill="#f5f5f5"/>
    <path id="Path_34" data-name="Path 34" d="M86.135,184.334l.093.279.295,0a.04.04,0,0,1,.023.072l-.237.175.089.281a.04.04,0,0,1-.061.044l-.24-.171-.24.171a.04.04,0,0,1-.061-.044l.089-.281-.237-.175a.04.04,0,0,1,.023-.072l.295,0,.093-.279A.04.04,0,0,1,86.135,184.334Z" transform="translate(-82.228 -180.666)" fill="#f5f5f5"/>
    <path id="Path_35" data-name="Path 35" d="M86.135,214.989l.093.279.295,0a.04.04,0,0,1,.023.072l-.237.175.089.281a.04.04,0,0,1-.061.044l-.24-.171-.24.171a.04.04,0,0,1-.061-.044l.089-.281-.237-.175a.04.04,0,0,1,.023-.072l.295,0,.093-.279A.04.04,0,0,1,86.135,214.989Z" transform="translate(-82.228 -209.858)" fill="#f5f5f5"/>
    <path id="Path_36" data-name="Path 36" d="M109.927,108l.093.28.295,0a.04.04,0,0,1,.023.072l-.237.175.089.281a.04.04,0,0,1-.061.044l-.24-.171-.24.171a.04.04,0,0,1-.061-.044l.089-.281-.237-.175a.04.04,0,0,1,.023-.072l.295,0,.093-.28A.04.04,0,0,1,109.927,108Z" transform="translate(-104.885 -107.969)" fill="#f5f5f5"/>
    <path id="Path_37" data-name="Path 37" d="M109.927,138.651l.093.28.295,0a.04.04,0,0,1,.023.072l-.237.175.089.281a.04.04,0,0,1-.061.044l-.24-.171-.24.171a.04.04,0,0,1-.061-.044l.089-.281-.237-.175a.04.04,0,0,1,.023-.072l.295,0,.093-.28A.04.04,0,0,1,109.927,138.651Z" transform="translate(-104.885 -137.161)" fill="#f5f5f5"/>
    <path id="Path_38" data-name="Path 38" d="M109.927,169.3l.093.28.295,0a.04.04,0,0,1,.023.072l-.237.175.089.281a.04.04,0,0,1-.061.044l-.24-.171-.24.171a.04.04,0,0,1-.061-.044l.089-.281-.237-.175a.04.04,0,0,1,.023-.072l.295,0,.093-.28A.04.04,0,0,1,109.927,169.3Z" transform="translate(-104.885 -166.353)" fill="#f5f5f5"/>
    <path id="Path_39" data-name="Path 39" d="M109.927,199.959l.093.279.295,0a.04.04,0,0,1,.023.072l-.237.175.089.281a.04.04,0,0,1-.061.044l-.24-.171-.24.171a.04.04,0,0,1-.061-.044l.089-.281-.237-.175a.04.04,0,0,1,.023-.072l.295,0,.093-.279A.04.04,0,0,1,109.927,199.959Z" transform="translate(-104.885 -195.545)" fill="#f5f5f5"/>
    <path id="Path_40" data-name="Path 40" d="M109.927,230.612l.093.279.295,0a.04.04,0,0,1,.023.072l-.237.175.089.281a.04.04,0,0,1-.061.044l-.24-.171-.24.171a.04.04,0,0,1-.061-.044l.089-.281-.237-.175a.04.04,0,0,1,.023-.072l.295,0,.093-.279A.04.04,0,0,1,109.927,230.612Z" transform="translate(-104.885 -224.737)" fill="#f5f5f5"/>
    <path id="Path_41" data-name="Path 41" d="M133.721,123.026l.093.279.295,0a.04.04,0,0,1,.023.072l-.237.175.089.281a.04.04,0,0,1-.061.044l-.24-.171-.24.171a.04.04,0,0,1-.061-.044l.089-.281-.237-.175a.04.04,0,0,1,.023-.072l.295,0,.093-.279A.04.04,0,0,1,133.721,123.026Z" transform="translate(-127.544 -122.282)" fill="#f5f5f5"/>
    <path id="Path_42" data-name="Path 42" d="M133.721,153.68l.093.28.295,0a.04.04,0,0,1,.023.072l-.237.175.089.281a.04.04,0,0,1-.061.044l-.24-.171-.24.171a.04.04,0,0,1-.061-.044l.089-.281-.237-.175a.04.04,0,0,1,.023-.072l.295,0,.093-.28A.04.04,0,0,1,133.721,153.68Z" transform="translate(-127.544 -151.474)" fill="#f5f5f5"/>
    <path id="Path_43" data-name="Path 43" d="M133.721,184.334l.093.279.295,0a.04.04,0,0,1,.023.072l-.237.175.089.281a.04.04,0,0,1-.061.044l-.24-.171-.24.171a.04.04,0,0,1-.061-.044l.089-.281-.237-.175a.04.04,0,0,1,.023-.072l.295,0,.093-.279A.04.04,0,0,1,133.721,184.334Z" transform="translate(-127.544 -180.666)" fill="#f5f5f5"/>
    <path id="Path_44" data-name="Path 44" d="M133.721,214.989l.093.279.295,0a.04.04,0,0,1,.023.072l-.237.175.089.281a.04.04,0,0,1-.061.044l-.24-.171-.24.171a.04.04,0,0,1-.061-.044l.089-.281-.237-.175a.04.04,0,0,1,.023-.072l.295,0,.093-.279A.04.04,0,0,1,133.721,214.989Z" transform="translate(-127.544 -209.858)" fill="#f5f5f5"/>
    <path id="Path_45" data-name="Path 45" d="M157.515,108l.093.28.295,0a.04.04,0,0,1,.023.072l-.237.175.089.281a.04.04,0,0,1-.061.044l-.24-.171-.24.171a.04.04,0,0,1-.061-.044l.089-.281-.237-.175a.04.04,0,0,1,.023-.072l.295,0,.093-.28A.04.04,0,0,1,157.515,108Z" transform="translate(-150.203 -107.969)" fill="#f5f5f5"/>
    <path id="Path_46" data-name="Path 46" d="M157.515,138.651l.093.28.295,0a.04.04,0,0,1,.023.072l-.237.175.089.281a.04.04,0,0,1-.061.044l-.24-.171-.24.171a.04.04,0,0,1-.061-.044l.089-.281-.237-.175a.04.04,0,0,1,.023-.072l.295,0,.093-.28A.04.04,0,0,1,157.515,138.651Z" transform="translate(-150.203 -137.161)" fill="#f5f5f5"/>
    <path id="Path_47" data-name="Path 47" d="M157.515,169.3l.093.28.295,0a.04.04,0,0,1,.023.072l-.237.175.089.281a.04.04,0,0,1-.061.044l-.24-.171-.24.171a.04.04,0,0,1-.061-.044l.089-.281-.237-.175a.04.04,0,0,1,.023-.072l.295,0,.093-.28A.04.04,0,0,1,157.515,169.3Z" transform="translate(-150.203 -166.353)" fill="#f5f5f5"/>
    <path id="Path_48" data-name="Path 48" d="M157.515,199.959l.093.279.295,0a.04.04,0,0,1,.023.072l-.237.175.089.281a.04.04,0,0,1-.061.044l-.24-.171-.24.171a.04.04,0,0,1-.061-.044l.089-.281-.237-.175a.04.04,0,0,1,.023-.072l.295,0,.093-.279A.04.04,0,0,1,157.515,199.959Z" transform="translate(-150.203 -195.545)" fill="#f5f5f5"/>
    <path id="Path_49" data-name="Path 49" d="M157.515,230.612l.093.279.295,0a.04.04,0,0,1,.023.072l-.237.175.089.281a.04.04,0,0,1-.061.044l-.24-.171-.24.171a.04.04,0,0,1-.061-.044l.089-.281-.237-.175a.04.04,0,0,1,.023-.072l.295,0,.093-.279A.04.04,0,0,1,157.515,230.612Z" transform="translate(-150.203 -224.737)" fill="#f5f5f5"/>
    <path id="Path_50" data-name="Path 50" d="M181.308,123.026l.093.279.295,0a.04.04,0,0,1,.023.072l-.237.175.089.281a.04.04,0,0,1-.061.044l-.24-.171-.24.171a.04.04,0,0,1-.061-.044l.089-.281-.237-.175a.04.04,0,0,1,.023-.072l.295,0,.093-.279A.04.04,0,0,1,181.308,123.026Z" transform="translate(-172.862 -122.282)" fill="#f5f5f5"/>
    <path id="Path_51" data-name="Path 51" d="M181.308,153.68l.093.28.295,0a.04.04,0,0,1,.023.072l-.237.175.089.281a.04.04,0,0,1-.061.044l-.24-.171-.24.171a.04.04,0,0,1-.061-.044l.089-.281-.237-.175a.04.04,0,0,1,.023-.072l.295,0,.093-.28A.04.04,0,0,1,181.308,153.68Z" transform="translate(-172.862 -151.474)" fill="#f5f5f5"/>
    <path id="Path_52" data-name="Path 52" d="M181.308,184.334l.093.279.295,0a.04.04,0,0,1,.023.072l-.237.175.089.281a.04.04,0,0,1-.061.044l-.24-.171-.24.171a.04.04,0,0,1-.061-.044l.089-.281-.237-.175a.04.04,0,0,1,.023-.072l.295,0,.093-.279A.04.04,0,0,1,181.308,184.334Z" transform="translate(-172.862 -180.666)" fill="#f5f5f5"/>
    <path id="Path_53" data-name="Path 53" d="M181.308,214.989l.093.279.295,0a.04.04,0,0,1,.023.072l-.237.175.089.281a.04.04,0,0,1-.061.044l-.24-.171-.24.171a.04.04,0,0,1-.061-.044l.089-.281-.237-.175a.04.04,0,0,1,.023-.072l.295,0,.093-.279A.04.04,0,0,1,181.308,214.989Z" transform="translate(-172.862 -209.858)" fill="#f5f5f5"/>
    <path id="Path_54" data-name="Path 54" d="M205.1,108l.093.28.295,0a.04.04,0,0,1,.023.072l-.237.175.089.281a.04.04,0,0,1-.061.044l-.24-.171-.24.171a.04.04,0,0,1-.061-.044l.089-.281-.237-.175a.04.04,0,0,1,.023-.072l.295,0,.093-.28A.04.04,0,0,1,205.1,108Z" transform="translate(-195.521 -107.969)" fill="#f5f5f5"/>
    <path id="Path_55" data-name="Path 55" d="M205.1,138.651l.093.28.295,0a.04.04,0,0,1,.023.072l-.237.175.089.281a.04.04,0,0,1-.061.044l-.24-.171-.24.171a.04.04,0,0,1-.061-.044l.089-.281-.237-.175a.04.04,0,0,1,.023-.072l.295,0,.093-.28A.04.04,0,0,1,205.1,138.651Z" transform="translate(-195.521 -137.161)" fill="#f5f5f5"/>
    <path id="Path_56" data-name="Path 56" d="M205.1,169.3l.093.28.295,0a.04.04,0,0,1,.023.072l-.237.175.089.281a.04.04,0,0,1-.061.044l-.24-.171-.24.171a.04.04,0,0,1-.061-.044l.089-.281-.237-.175a.04.04,0,0,1,.023-.072l.295,0,.093-.28A.04.04,0,0,1,205.1,169.3Z" transform="translate(-195.521 -166.353)" fill="#f5f5f5"/>
    <path id="Path_57" data-name="Path 57" d="M205.1,199.959l.093.279.295,0a.04.04,0,0,1,.023.072l-.237.175.089.281a.04.04,0,0,1-.061.044l-.24-.171-.24.171a.04.04,0,0,1-.061-.044l.089-.281-.237-.175a.04.04,0,0,1,.023-.072l.295,0,.093-.279A.04.04,0,0,1,205.1,199.959Z" transform="translate(-195.521 -195.545)" fill="#f5f5f5"/>
    <path id="Path_58" data-name="Path 58" d="M205.1,230.612l.093.279.295,0a.04.04,0,0,1,.023.072l-.237.175.089.281a.04.04,0,0,1-.061.044l-.24-.171-.24.171a.04.04,0,0,1-.061-.044l.089-.281-.237-.175a.04.04,0,0,1,.023-.072l.295,0,.093-.279A.04.04,0,0,1,205.1,230.612Z" transform="translate(-195.521 -224.737)" fill="#f5f5f5"/>
  </g>
</svg>
