<svg id="Icon_-_Alert_-_Question" data-name="Icon - Alert - Question" xmlns="http://www.w3.org/2000/svg" width="30" height="30" viewBox="0 0 30 30">
  <circle id="bg" cx="15" cy="15" r="15" fill="#018293"/>
  <path id="shadow" d="M207.985,373.7a15,15,0,1,1,0-29.4,15.008,15.008,0,0,0,0,29.4Z" transform="translate(-190 -344)" fill="#fff" opacity="0.3"/>
  <g id="Detail">
    <path id="detail-2" data-name="detail" d="M204.615,352.567a6.432,6.432,0,0,0-1.669.213,7.631,7.631,0,0,0-1.672.685l-.846-2.319a8.833,8.833,0,0,1,2.106-.836,9.535,9.535,0,0,1,2.43-.31,6.344,6.344,0,0,1,2.469.412,4.356,4.356,0,0,1,1.544,1.035,3.473,3.473,0,0,1,.8,1.369,5.086,5.086,0,0,1,.223,1.447,3.592,3.592,0,0,1-.31,1.521,5.769,5.769,0,0,1-.786,1.246,11.382,11.382,0,0,1-1.022,1.085q-.551.512-1.023,1.047a5.606,5.606,0,0,0-.785,1.134,2.854,2.854,0,0,0-.312,1.346v.288a1.738,1.738,0,0,0,.026.31H203.2a4.584,4.584,0,0,1-.075-.536c-.018-.19-.026-.369-.026-.535a3.7,3.7,0,0,1,.276-1.471,5.275,5.275,0,0,1,.7-1.2,9.762,9.762,0,0,1,.909-1.023c.324-.314.626-.631.911-.947a5.211,5.211,0,0,0,.7-.972,2.239,2.239,0,0,0,.274-1.1,1.79,1.79,0,0,0-.562-1.357A2.348,2.348,0,0,0,204.615,352.567Zm1.944,13.463a1.878,1.878,0,0,1-.572,1.42,2.1,2.1,0,0,1-2.83,0,1.857,1.857,0,0,1-.587-1.42,1.9,1.9,0,0,1,.587-1.434,2.068,2.068,0,0,1,2.83,0A1.925,1.925,0,0,1,206.559,366.03Z" transform="translate(-190 -344)" fill="#fff"/>
  </g>
</svg>
