<svg xmlns="http://www.w3.org/2000/svg" width="64.222" height="29.723" viewBox="0 0 64.222 29.723">
  <g id="Group_138" data-name="Group 138" transform="translate(-2.067 -0.5)">
    <path id="Path_261" data-name="Path 261" d="M54.551,14.282c-.321-5.114-3.015-7.971-3.609-10.391C50.245.931,50.4.5,50.4.5L4.744,3.406A20.06,20.06,0,0,1,4.58,7.124C4.259,10.03,1.729,11.971,2.105,17.57c.321,4.847,2.851,6.515,3.718,9.372a14.177,14.177,0,0,1,.752,3.282l45.446-2.851s-.164-.164.218-3.069a11.26,11.26,0,0,1,.752-2.475,1.166,1.166,0,0,1-.807-1.128,1.25,1.25,0,0,1,1.237-1.237,1.558,1.558,0,0,1,.485.109A16.424,16.424,0,0,0,54.551,14.282Z" transform="translate(0 0)" fill="#f7941e"/>
    <path id="Path_262" data-name="Path 262" d="M86.486,29.459a1.25,1.25,0,0,0,1.237-1.237,1.3,1.3,0,0,0-.752-1.128c-.267.807-.594,1.51-.861,2.263A.858.858,0,0,0,86.486,29.459ZM93.7,22.386a2.871,2.871,0,0,0-2.153,1.183c0-.649-.109-1.183-.267-1.183a.2.2,0,0,0-.164.055l-1.08.431a.174.174,0,0,0-.164.164c0,.164.109.485.109.807a3.767,3.767,0,0,1-.055.7L88.415,31.7l-.049.267c0,.055,0,.109.055.109a.328.328,0,0,0,.218-.055l1.183-.218c.218-.055.218-.109.218-.218l.54-2.42a2.065,2.065,0,0,0,1.183.321c2.317,0,3.391-2.906,3.391-5.059C95.148,23.035,94.614,22.386,93.7,22.386Zm-2,5.817a1.832,1.832,0,0,1-.861-.267l.485-2.208c.218-.971.807-1.99,1.614-1.99.431,0,.649.321.649.916C93.535,26.05,93.049,28.2,91.7,28.2ZM99.3,19.966a2.5,2.5,0,0,0,.055-.267c0-.109,0-.109-.055-.109a.2.2,0,0,0-.164.055l-1.183.218c-.218.055-.218.109-.218.218l-1.456,6.836a6.138,6.138,0,0,0-.164,1.4c0,.861.54,1.128,1.292,1.128.54,0,1.347-.164,1.347-.376v-.109l-.109-.916a.117.117,0,0,0-.109-.109,2.168,2.168,0,0,1-.485.109c-.218,0-.321-.055-.321-.267,0-.164.109-.54.164-.861C97.9,26.912,99.3,19.966,99.3,19.966Z" transform="translate(-33.063 -7.51)" fill="#f7941e"/>
    <path id="Path_263" data-name="Path 263" d="M12.951,27.993c-3.282,0-4.847-1.941-4.792-6.03,0-3.876,1.614-6.193,4.847-6.193,1.4,0,3.069.916,3.069,1.237a.335.335,0,0,1-.109.267l-.7.971a.293.293,0,0,1-.218.164c-.321,0-.916-.807-1.941-.807-1.614,0-2.317.971-2.317,3.931,0,2.851.376,4.628,2.317,4.628,1.025,0,1.723-.649,2.1-.649.055,0,.109.055.218.164l.594.971c.055.109.109.164.109.267A4.265,4.265,0,0,1,12.951,27.993Zm11.58-11.471-.376,1.128c-.055.267-.267.267-.431.267H20.115v2.8h3.179c.321,0,.376.055.376.376v1.128c0,.321-.055.376-.376.376H20.115v3.336H24.1c.321,0,.376.055.376.376v1.128c0,.321-.055.376-.376.376H17.962c-.321,0-.376-.055-.376-.376V16.468c0-.321.055-.376.376-.376H24.1c.376,0,.485.055.485.164A.4.4,0,0,1,24.531,16.522Zm9.742,11.252H33.035c-.267,0-.321-.055-.431-.218l-3.391-5.763a10.737,10.737,0,0,1-1.08-2.317H28.08c0,.218.055,1.08.055,1.887v6.084c0,.321-.055.376-.376.376H26.412c-.321,0-.376-.055-.376-.376l.055-10.876c0-.321.055-.376.376-.376h1.51c.267,0,.321.055.431.218l3.069,5.277a11.663,11.663,0,0,1,1.08,2.475h.055c0-.54-.055-1.723-.055-2.208v-5.38c0-.321.055-.376.376-.376h1.347c.321,0,.376.055.376.376L34.6,27.453C34.655,27.72,34.6,27.774,34.273,27.774Zm9.1-11.2L43,17.705c-.055.267-.267.267-.431.267H38.962v2.8H42.14c.321,0,.376.055.376.376v1.128c0,.321-.055.376-.376.376H38.962v3.336h3.985c.321,0,.376.055.376.376V27.5c0,.321-.055.376-.376.376H36.809c-.321,0-.376-.055-.376-.376V16.522c0-.321.055-.376.376-.376h6.139c.376,0,.485.055.485.164C43.433,16.468,43.378,16.468,43.378,16.577ZM48.546,28.1c-2.906,0-4.628-1.99-4.628-6.084s1.777-6.084,4.628-6.084,4.628,1.99,4.628,6.139C53.174,26.106,51.452,28.1,48.546,28.1ZM48.6,17.657c-1.4,0-1.99,1.668-1.99,4.307s.594,4.307,1.99,4.307,1.99-1.668,1.99-4.307S50,17.705,48.6,17.657Z" transform="translate(-2.396 -6.007)" fill="#fff"/>
  </g>
</svg>
