<svg version="1.1" viewBox="0.0 0.0 106.3753280839895 100.0" fill="none" stroke="none" stroke-linecap="square" stroke-miterlimit="10" xmlns:xlink="http://www.w3.org/1999/xlink" xmlns="http://www.w3.org/2000/svg"><clipPath id="p.0"><path d="m0 0l106.37533 0l0 100.0l-106.37533 0l0 -100.0z" clip-rule="nonzero"/></clipPath><g clip-path="url(#p.0)"><path fill="#000000" fill-opacity="0.0" d="m0 0l106.37533 0l0 100.0l-106.37533 0z" fill-rule="evenodd"/><path fill="#000000" fill-opacity="0.0" d="m-1.0033947 27.146046l112.314964 0l0.03149414 43.748028l-112.314964 0z" fill-rule="evenodd"/><path fill="#333333" d="m12.955486 56.844795q-1.375 0 -2.1880846 -0.8125q-0.8130846 -0.8125 -0.8142328 -2.40625l-0.0044431686 -6.171875l-1.484375 0l-0.0012483597 -1.734375l1.484375 0l-0.0011701584 -1.625l1.2957506 -1.5625l1.5 0l0.0022945404 3.1875l2.5625 0l0.0012483597 1.734375l-2.5625 0l0.0044431686 6.171875q0.0010690689 1.484375 1.0635691 1.484375q0.4375 0 0.7343073 -0.09375q0.29680824 -0.09375 1.0465269 -0.484375l0.59458256 1.15625q-0.8433113 0.609375 -1.4993591 0.890625q-0.65605927 0.265625 -1.7341843 0.265625zm3.9687138 -8.125q-6.9618225E-4 -0.96875 -0.20408058 -1.328125q-0.2033844 -0.359375 -0.84400845 -0.359375l-0.65625 0l-9.4509125E-4 -1.3125l2.140625 0q0.921875 0 1.4533386 0.296875q0.5470886 0.296875 0.46943665 0.953125l-0.10942078 -0.0625q0.21829987 -0.625 0.9524059 -1.0q0.7340927 -0.390625 1.7184677 -0.390625q0.984375 0 1.5471687 0.40625q0.4377346 0.328125 1.0635338 1.4375l-1.5304279 1.140625q-0.42230225 -0.59375 -0.76613235 -0.703125q-0.34383965 -0.125 -0.84383965 -0.125q-0.53125 0 -0.96858025 0.234375q-0.43733215 0.234375 -0.62461853 0.53125l0.0058956146 8.1875l-2.796875 0l-0.0056934357 -7.90625zm12.453024 8.125q-1.59375 0 -2.7036762 -0.765625q-1.1099377 -0.78125 -1.6733589 -2.0625q-0.54779816 -1.28125 -0.5489235 -2.84375q-0.0011138916 -1.546875 0.54483986 -2.828125q0.56157684 -1.28125 1.6391506 -2.046875q1.0775623 -0.78125 2.5150623 -0.78125q2.359375 0 3.532219 1.34375q1.1728287 1.328125 1.1746063 3.796875l-0.045951843 1.28125l-6.453125 0q8.659363E-4 1.203125 0.65782547 2.1875q0.67258453 0.984375 1.7819595 0.984375q0.890625 0 1.4841042 -0.375q0.59347916 -0.375 1.3895454 -1.5l1.1255722 0.796875q-0.9675789 1.625 -2.0140266 2.21875q-1.0308228 0.59375 -2.4058228 0.59375zm1.5889702 -6.640625q-9.57489E-4 -1.328125 -0.47029114 -2.140625q-0.453722 -0.828125 -1.344347 -0.828125q-0.453125 0 -0.8747082 0.40625q-0.40595627 0.40625 -0.67100716 1.203125q-0.24943924 0.78125 -0.24902153 1.359375l3.609375 0zm8.819202 6.640625q-1.59375 0 -2.7036743 -0.765625q-1.1099396 -0.78125 -1.6733627 -2.0625q-0.54779434 -1.28125 -0.5489197 -2.84375q-0.0011138916 -1.546875 0.54483795 -2.828125q0.56157684 -1.28125 1.6391525 -2.046875q1.0775604 -0.78125 2.5150604 -0.78125q2.359375 0 3.532219 1.34375q1.1728287 1.328125 1.1746063 3.796875l-0.045951843 1.28125l-6.453125 0q8.659363E-4 1.203125 0.65782547 2.1875q0.67258453 0.984375 1.7819595 0.984375q0.890625 0 1.4841042 -0.375q0.59347916 -0.375 1.3895454 -1.5l1.1255722 0.796875q-0.9675789 1.625 -2.0140266 2.21875q-1.0308228 0.59375 -2.4058228 0.59375zm1.5889702 -6.640625q-9.57489E-4 -1.328125 -0.47029114 -2.140625q-0.4537201 -0.828125 -1.3443451 -0.828125q-0.453125 0 -0.8747101 0.40625q-0.40595627 0.40625 -0.67100906 1.203125q-0.24943542 0.78125 -0.24901962 1.359375l3.609375 0zm4.46669 -5.53125q-7.095337E-4 -0.984375 -0.20409393 -1.34375q-0.2033844 -0.359375 -0.8440094 -0.359375l-0.875 0l-9.3078613E-4 -1.296875l2.359375 0q0.90625 0 1.4220657 0.265625q0.51581573 0.265625 0.71941376 0.921875q0.21922302 0.65625 0.22005463 1.8125l-0.17065048 1.703125q-0.062633514 -0.1875 0.71838 -0.515625q0.79662704 -0.34375 1.796627 -0.34375q1.75 0 2.906948 0.96875q1.1569481 0.96875 1.1586227 3.296875l0.004928589 6.84375l-2.796875 0l-0.004928589 -6.84375q-9.460449E-4 -1.3125 -0.5482254 -1.875q-0.54727936 -0.5625 -1.3597794 -0.5625q-0.9375 0 -1.7024956 0.875l0.0060539246 8.40625l-2.796875 0l-0.008605957 -11.953125zm15.853886 12.171875q-1.578125 0 -2.7661743 -0.765625q-1.1724281 -0.765625 -1.7827377 -2.0625q-0.5946808 -1.296875 -0.5957947 -2.84375q-0.0011138916 -1.546875 0.59171295 -2.828125q0.6084404 -1.296875 1.7797661 -2.0625q1.1869469 -0.765625 2.7650719 -0.765625q1.578125 0 2.7505531 0.765625q1.1724243 0.765625 1.7671051 2.0625q0.61029816 1.28125 0.61141205 2.828125q0.0011138916 1.546875 -0.6073227 2.84375q-0.5928192 1.296875 -1.7641449 2.0625q-1.1713219 0.765625 -2.7494469 0.765625zm-0.001247406 -1.734375q0.609375 0 1.1090355 -0.46875q0.51527786 -0.484375 0.81150055 -1.390625q0.29621124 -0.921875 0.29537964 -2.078125q-8.354187E-4 -1.15625 -0.29836273 -2.0625q-0.29753876 -0.921875 -0.81349945 -1.390625q-0.50034714 -0.484375 -1.1097221 -0.484375q-0.625 0 -1.1402779 0.484375q-0.4996643 0.46875 -0.79587555 1.390625q-0.2962227 0.90625 -0.29538727 2.0625q8.31604E-4 1.15625 0.29837036 2.078125q0.2975273 0.90625 0.79787445 1.390625q0.5159645 0.46875 1.1409645 0.46875zm10.836456 1.734375q-1.765625 0 -2.922577 -0.96875q-1.1413345 -0.984375 -1.1430054 -3.3125l-0.0027694702 -3.84375q-6.866455E-4 -0.953125 -0.21969604 -1.3125q-0.20339203 -0.375 -0.844017 -0.375l-0.65625 0l-9.460449E-4 -1.3125l2.15625 0q0.890625 0 1.4064407 0.265625q0.53144073 0.265625 0.7350464 0.9375q0.20359802 0.65625 0.204422 1.796875l0.0027694702 3.84375q9.384155E-4 1.3125 0.5482178 1.875q0.547287 0.5625 1.375412 0.5625q0.921875 0 1.6868744 -0.859375l-0.0060577393 -8.421875l2.796875 0l0.007850647 10.90625l-1.703125 0l-0.65701294 -1.0625l0.10939789 0.03125q-0.31209564 0.5625 -1.1087265 0.90625q-0.78099823 0.34375 -1.7653732 0.34375zm11.113724 0q-2.640625 0 -3.6257095 -0.984375q-0.45345306 -0.453125 -0.5632248 -1.0q-0.0941391 -0.546875 -0.0951767 -1.984375l1.21875 0q0.2352829 1.265625 0.84500885 1.75q0.62535095 0.484375 1.781601 0.484375q1.03125 0 1.4685364 -0.296875q0.43727112 -0.3125 0.43695068 -0.765625q-3.0517578E-4 -0.421875 -0.35993195 -0.765625q-0.3596344 -0.359375 -1.2817764 -0.734375l-1.2816315 -0.53125q-1.3597717 -0.546875 -2.0947037 -1.328125q-0.73495483 -0.796875 -0.73579407 -1.96875q-0.0010910034 -1.515625 1.1232986 -2.359375q1.1243973 -0.84375 2.8275223 -0.84375q2.515625 0 3.5163193 0.96875q0.45347595 0.484375 0.5476074 1.015625q0.10974121 0.515625 0.1108017 1.984375l-1.234375 0q-0.20404816 -1.28125 -0.8137741 -1.765625q-0.5940933 -0.484375 -1.7034683 -0.484375q-0.859375 0 -1.2810287 0.3125q-0.40602112 0.3125 -0.4057083 0.75q5.874634E-4 0.8125 1.4385147 1.40625l1.2816315 0.53125q1.5317001 0.625 2.2822647 1.40625q0.7505493 0.765625 0.7514267 1.984375q0.0010910034 1.515625 -1.185791 2.375q-1.1868896 0.84375 -2.9681396 0.84375zm10.05925 0q-1.59375 0 -2.703682 -0.765625q-1.109932 -0.78125 -1.6733551 -2.0625q-0.54779816 -1.28125 -0.5489273 -2.84375q-0.0011138916 -1.546875 0.54483795 -2.828125q0.5615845 -1.28125 1.6391525 -2.046875q1.077568 -0.78125 2.515068 -0.78125q2.359375 0 3.5322113 1.34375q1.1728363 1.328125 1.174614 3.796875l-0.045951843 1.28125l-6.453125 0q8.621216E-4 1.203125 0.65782166 2.1875q0.67258453 0.984375 1.7819595 0.984375q0.890625 0 1.4841003 -0.375q0.593483 -0.375 1.3895493 -1.5l1.1255722 0.796875q-0.9675827 1.625 -2.0140228 2.21875q-1.0308228 0.59375 -2.4058228 0.59375zm1.5889664 -6.640625q-9.536743E-4 -1.328125 -0.47029114 -2.140625q-0.4537201 -0.828125 -1.3443451 -0.828125q-0.453125 0 -0.8747101 0.40625q-0.40596008 0.40625 -0.67100525 1.203125q-0.24944305 0.78125 -0.24902344 1.359375l3.609375 0z" fill-rule="nonzero"/></g></svg>